<svg xmlns="http://www.w3.org/2000/svg" xmlns:xlink="http://www.w3.org/1999/xlink" width="110" height="110" viewBox="0 0 110 110">
    <defs>
        <path id="n8ekadh4wa" d="M0 0.187L53.67 0.187 53.67 37.744 0 37.744z"/>
        <path id="ilqv6vp1tc" d="M0.326 0.276L18.53 0.276 18.53 11.113 0.326 11.113z"/>
    </defs>
    <g fill="none" fill-rule="evenodd">
        <g>
            <g transform="translate(-489 -460) translate(489 460)">
                <circle cx="55" cy="55" r="54.5" fill="#F4F4F4" stroke="#E5E5E5"/>
                <g>
                    <g transform="translate(28 30) translate(0 11.135)">
                        <mask id="54iw21qzmb" fill="#fff">
                            <use xlink:href="#n8ekadh4wa"/>
                        </mask>
                        <path fill="#CBCBCB" d="M21.905 21.571c-.714-.555-1.33-1.298-2.022-2.148-.775-.936-1.653-2.012-2.928-3.068-2.132-1.765-3.538-3.292-4.342-4.73-.794-1.418-1-2.747-.748-4.103-2.534.523-5.27 1.827-6.668 4.898-.687 1.512-1.05 3.135-1.205 4.728-.995.549-1.519 1.44-1.773 2.49-.317 1.306-.21 2.818-.106 4.198.098 1.291.183 2.472-.11 3.105-.122-.033-.263-.049-.43-.015-.58.078-.689 1.112-1.175 1.067-.353-.025-.392-.384-.392-.384-.083.792.673 1.296 1.401 1.15.891-.203 1.37-.824 1.068-1.452.422-.783.333-2.074.224-3.516-.103-1.335-.212-2.811.084-4.01.182-.755.533-1.4 1.15-1.877-.293 5.054 1.384 9.655 1.384 9.655s.937 3.896.563 5.83c-.376 1.926-.998 3.372-.618 3.881.375.511 7.206.816 6.802-.194-.112-.286-.445-.737-.53-1.51-.204-2.039-.06-5.143-.06-5.143s3.204 1.48 10.431.077V21.57zm0-21.126v19.772c-.42-.415-.814-.9-1.247-1.434-.815-.98-1.723-2.094-3.06-3.202-2.042-1.69-3.375-3.12-4.116-4.45-.701-1.259-.869-2.415-.604-3.613.331-1.42 1.478-3.108 2.997-4.398.297-.253.61-.495.926-.712.315-.206.639-.398.985-.576l.001-.002c.322-.167.658-.307.992-.43h-.001c-.075.003 1.143-.662 3.127-.955zm0 19.772c1.142 1.116 2.413 1.704 4.929 1.173 1.795-.374 2.947-1.617 3.593-3.31.393-1.065.587-2.317.622-3.646.02-1.333-.12-2.756-.414-4.155-.608-2.901-1.827-5.69-3.364-7.422C26.236 1.784 24.757.49 22.888.345c-.337.021-.673.064-.983.1v19.772zM37.412 4.705V15.01c-.469 0-.84.377-.84.834 0 .466.371.838.84.838v10.545c-.85-1.773-2.427-4.13-4.856-3.648-3.549.694-3.29 3.975-3.29 3.975 0 1.701-.513 7.328.692 8.909 1.208 1.58-6.547 1.189-7.447.982-.891-.22.023-1.51.206-1.97.171-.468.023-5.138.023-5.138-.285.051-.561.116-.835.163V21.57c1.174.921 2.619 1.326 5.128.797 2.185-.45 3.563-1.926 4.324-3.937.437-1.185.662-2.54.685-3.97.025-1.43-.123-2.916-.43-4.382-.559-2.682-1.641-5.273-3.027-7.155-.81-1.171-1.826-2.04-3.405-2.736 2.876-.021 6.406.591 9.93 2.811l-.008-.001c.859.493 1.631 1.073 2.31 1.707zm11.16 27.763c-.476.279-1.008.383-1.372.435-2.844.403-3.668-4.315-3.858-6.227-.28-5.997-.024-16.453-5.93-21.971V15.01c.467 0 .84.377.84.834 0 .466-.373.838-.84.838v10.545c.388.82.627 1.528.725 1.757.278.748 2.928 6.563 7.59 7.014 1.051.103 2.014-.02 2.846-.328v-3.202zm-3.346-6.465l.008-1.293c.018-.398.483-.334.639-.21l1.542 1.097c.32-.374.708-.686 1.158-.918v2.71c-.428-.204-.822-.48-1.137-.819l-1.563 1.113c-.156.12-.62.189-.64-.203l-.007-1.292v-.185zm6.673 3.925V31.1c-.194 2.18-1.424 3.856-3.326 4.571v-3.202c.61-.355 1.143-1.015 1.165-2.279.006-.502-.1-.925-.27-1.277-.11-.15-.203-.272-.169-.384.14-.355 1.166-.017 1.166-.017s.515-.533.992-.425c.196.047.088.47.103.614.167.37.285.783.339 1.228zm0-4.518c-.073.214-.116.444-.116.683 0 .241.043.475.116.693V25.41zm-3.326-.73c.532-.285 1.14-.434 1.788-.434.547 0 1.06.113 1.538.317v.216c-.246.395-.382.841-.382 1.314 0 .477.136.918.382 1.32v.087c-.479.187-.99.293-1.538.293-.648 0-1.256-.139-1.788-.405V24.68zm3.326 6.42v-1.172c.01.117.017.23.027.352.009.276-.004.56-.027.82zm.982-5.926c-.193-.172-.411-.311-.624-.438-.163.206-.284.434-.358.674v1.376c.064.205.169.4.295.583.248-.121.48-.272.687-.435v-1.08c-.089 0-.175-.072-.175-.169 0-.092.086-.173.175-.173v-.338zm-.982-.611c.04.01.069.034.114.05-.046.056-.077.113-.114.166v-.216zm.982 2.37v-1.08c.1 0 .174-.071.174-.168 0-.092-.073-.173-.174-.173v-.338c.308.258.57.565.789.913-.221.317-.481.607-.79.847z" mask="url(#54iw21qzmb)"/>
                    </g>
                    <g transform="translate(28 30) translate(16.678 .602)">
                        <mask id="0q4n4embld" fill="#fff">
                            <use xlink:href="#ilqv6vp1tc"/>
                        </mask>
                        <path fill="#CBCBCB" d="M1.31 7.064l1.16 3.761c3.919-1.788 9.23-1.356 13.372.288l1.616-4.179c-.984-.904-2.085-1.661-3.256-2.23-3.52-1.714-8.189-1.948-12.892 2.36M.326 4.181l.568 1.678c5.009-4.403 9.985-4.11 13.756-2.265 1.186.573 2.282 1.312 3.267 2.172l.613-1.585C15.362 1.01 8.317-2.735.326 4.18" mask="url(#0q4n4embld)"/>
                    </g>
                    <path fill="#CBCBCB" d="M25.452 4.99L26.759 4.99 26.759 6.45 28.218 6.45 28.218 7.756 26.755 7.756 26.755 9.222 25.454 9.222 25.454 7.756 23.987 7.756 23.987 6.454 25.452 6.454z" transform="translate(28 30)"/>
                </g>
            </g>
        </g>
    </g>
</svg>
