<svg xmlns="http://www.w3.org/2000/svg" xmlns:xlink="http://www.w3.org/1999/xlink" width="54" height="54" viewBox="0 0 54 54">
    <defs>
        <path id="rwornij05a" d="M0 0.317L35.649 0.317 35.649 25.263 0 25.263z"/>
    </defs>
    <g fill="none" fill-rule="evenodd">
        <g>
            <g transform="translate(-57 -684) translate(57 684)">
                <circle cx="27" cy="27" r="27" fill="#4042AB"/>
                <g>
                    <g transform="translate(10 10) translate(0 6.621)">
                        <mask id="fp3afuxprb" fill="#fff">
                            <use xlink:href="#rwornij05a"/>
                        </mask>
                        <path fill="#FFF" d="M24.85 10.161c.307 0 .555.249.555.556 0 .307-.248.556-.555.556-.307 0-.555-.249-.555-.556 0-.307.248-.556.555-.556zm9.858 6.46c-.199.267-.312.575-.312.903 0 .305.098.593.271.846.403-.199.742-.494.982-.851-.232-.374-.556-.684-.94-.898zm.418.517c.063 0 .115.05.115.114s-.052.115-.115.115-.115-.051-.115-.115c0-.063.052-.114.115-.114zM15.21.42c1.235.095 2.218.957 2.905 1.665 1.023 1.156 1.832 3.006 2.235 4.936.194.927.292 1.87.273 2.76-.018.88-.15 1.708-.416 2.419-.422 1.123-1.188 1.95-2.383 2.2-2.288.477-3.029-.424-4.102-1.73-.535-.65-1.145-1.393-2.033-2.13-1.351-1.12-2.235-2.073-2.728-2.953-.47-.839-.58-1.61-.401-2.402.213-.945.979-2.061 1.987-2.92.2-.17.405-.329.614-.47.207-.14.425-.27.653-.387.217-.11.439-.206.662-.289h-.001c-.06.002 1.03-.586 2.735-.7zm13.58 17.486c-.202-4.441.03-12.568-5.47-15.724l.006.002C20.981.708 18.633.3 16.724.318c1.047.458 1.728 1.035 2.263 1.815.924 1.247 1.639 2.972 2.01 4.754.204.972.307 1.965.288 2.907-.02.953-.165 1.856-.459 2.638-.5 1.332-1.42 2.315-2.868 2.618-2.68.56-3.525-.468-4.75-1.958-.512-.625-1.098-1.338-1.944-2.038C9.85 9.88 8.914 8.866 8.38 7.913c-.528-.942-.67-1.82-.499-2.723-1.68.344-3.503 1.212-4.429 3.253-.456 1.004-.697 2.077-.8 3.134-.66.367-1.007.962-1.177 1.66-.21.864-.136 1.871-.068 2.787.063.861.12 1.636-.07 2.061-.083-.023-.18-.029-.29-.013-.389.057-.458.742-.78.714-.233-.02-.263-.256-.263-.256-.051.523.448.862.933.76.593-.127.91-.542.709-.962.28-.519.218-1.377.147-2.332-.065-.888-.137-1.865.059-2.668.12-.496.35-.931.761-1.244-.192 3.355.918 6.414.918 6.414s.625 2.585.375 3.868c-.25 1.284-.664 2.241-.413 2.58.25.34 4.786.548 4.521-.13-.072-.186-.296-.488-.349-1-.137-1.359-.042-3.418-.042-3.418s2.288 1.062 7.482-.06c0 0 .103 3.105-.015 3.415-.118.31-.73 1.167-.135 1.308.594.14 5.744.395 4.945-.653-.799-1.048-.46-4.786-.46-5.914 0 0-.168-2.177 2.189-2.642 2.357-.466 3.508 3.097 3.7 3.59.192.493 1.946 4.359 5.044 4.66 2.5.243 4.182-1.426 4.114-3.799-.01-.394-.097-.743-.24-1.051-.008-.09.062-.375-.07-.406-.314-.073-.66.279-.66.279s-.68-.22-.768.015c-.027.07.035.154.11.258.11.23.18.51.176.846-.02 1.49-1.13 1.72-1.681 1.798-1.895.273-2.438-2.864-2.566-4.135zm1.248-.445h.001l.006-.86c.016-.263.322-.218.43-.138l1.017.728c.474-.55 1.176-.898 1.959-.898.392 0 .764.088 1.097.244-.21.291-.33.628-.33.986 0 .332.103.645.285.921-.322.133-.677.207-1.052.207-.774 0-1.467-.315-1.942-.813l-1.034.74c-.108.08-.414.126-.43-.137l-.006-.86v-.12z" mask="url(#fp3afuxprb)"/>
                    </g>
                    <path fill="#FFF" d="M11.948 4.51c3.125-2.864 6.225-2.71 8.563-1.572.781.38 1.513.885 2.166 1.486L21.6 7.2c-2.75-1.1-6.278-1.38-8.882-.196l-.77-2.493zm-.653-1.916l.38 1.117c3.327-2.924 6.63-2.73 9.138-1.509.783.38 1.51.872 2.164 1.445l.409-1.053c-2.104-2.104-6.783-4.596-12.091 0z" transform="translate(10 10)"/>
                </g>
            </g>
        </g>
    </g>
</svg>
